<?xml version="1.0" standalone="no"?>
<!DOCTYPE svg PUBLIC "-//W3C//DTD SVG 20010904//EN"
 "http://www.w3.org/TR/2001/REC-SVG-20010904/DTD/svg10.dtd">
<svg version="1.0" xmlns="http://www.w3.org/2000/svg"
 width="535.000000pt" height="433.000000pt" viewBox="0 0 535.000000 433.000000"
 preserveAspectRatio="xMidYMid meet">

<g transform="translate(0.000000,433.000000) scale(0.100000,-0.100000)"
fill="#000000" stroke="none">
<path d="M0 2165 l0 -2165 2675 0 2675 0 0 2165 0 2165 -2675 0 -2675 0 0
-2165z m3520 1711 l0 -304 -217 -5 c-169 -3 -230 -8 -273 -22 -173 -54 -341
-193 -443 -365 -15 -25 -27 -42 -27 -37 0 40 146 501 206 649 52 130 140 302
174 343 18 22 -4 20 -100 -10 -111 -36 -200 -77 -297 -138 l-83 -52 0 -1362 0
-1363 -305 0 -305 0 0 1485 0 1485 835 0 835 0 0 -304z m-3191 -2866 c103 -19
177 -76 228 -172 23 -45 28 -65 28 -133 0 -96 -24 -158 -87 -222 l-42 -42 39
-38 c43 -41 81 -117 91 -180 l7 -43 -55 0 -55 0 -7 38 c-11 71 -75 142 -145
162 l-31 9 0 -105 0 -104 -55 0 -55 0 0 420 0 420 44 0 c24 0 67 -4 95 -10z
m611 -45 l0 -55 -95 0 -95 0 2 -207 3 -208 43 -3 42 -3 0 -49 0 -49 -42 -3
-43 -3 0 -50 0 -50 93 -3 92 -3 0 -49 0 -50 -145 0 -145 0 0 420 0 420 145 0
145 0 0 -55z m250 34 c165 -57 253 -261 182 -423 -41 -91 -160 -186 -234 -186
l-28 0 0 -105 0 -105 -55 0 -55 0 0 421 0 422 78 -6 c42 -3 93 -12 112 -18z
m805 -1 c93 -23 184 -94 238 -186 47 -79 60 -135 55 -239 -5 -113 -41 -194
-119 -272 -76 -76 -159 -114 -265 -119 -183 -10 -333 81 -413 248 -23 49 -26
67 -26 165 0 103 2 114 32 178 90 189 287 278 498 225z m581 -14 c66 -31 127
-100 155 -174 41 -109 12 -243 -72 -332 l-36 -38 40 -42 c46 -48 75 -107 83
-172 l7 -46 -56 0 -55 0 -6 45 c-9 56 -73 130 -131 150 l-40 13 -3 -104 -3
-104 -54 0 -55 0 0 413 c0 228 3 417 8 421 15 16 164 -4 218 -30z m592 -21 l3
-53 -65 0 -66 0 0 -365 0 -365 -55 0 -55 0 0 365 0 365 -60 0 -60 0 0 55 0 55
178 -2 177 -3 3 -52z m272 36 c86 -30 169 -118 200 -213 29 -91 -11 -237 -85
-309 l-37 -36 37 -37 c43 -42 81 -119 91 -181 l7 -43 -55 0 -55 0 -7 38 c-11
71 -75 142 -145 162 l-31 9 0 -105 0 -104 -55 0 -55 0 0 421 0 422 78 -6 c42
-3 93 -12 112 -18z m560 -34 l0 -55 -90 0 -90 0 0 -210 0 -210 40 0 40 0 0
-50 0 -50 -40 0 -40 0 0 -55 0 -55 90 0 90 0 0 -50 0 -50 -145 0 -145 0 0 420
0 420 145 0 145 0 0 -55z m168 -317 l2 -368 95 0 95 0 0 -50 0 -50 -150 0
-150 0 0 421 0 420 53 -3 52 -3 3 -367z m525 335 c74 -47 77 -61 77 -455 l0
-348 -55 0 -55 0 0 105 0 105 -70 0 -70 0 0 -105 0 -105 -55 0 -55 0 0 343 c0
384 2 396 74 453 62 50 140 53 209 7z m239 -119 l3 -156 29 -25 c21 -18 35
-23 55 -18 53 13 56 23 59 196 l3 160 52 -3 52 -3 0 -335 c0 -360 -3 -382 -52
-441 -52 -61 -131 -76 -207 -39 -61 30 -90 78 -94 161 l-4 69 49 0 50 0 6 -51
c8 -63 29 -89 73 -89 54 0 68 32 73 167 l3 112 -32 -9 c-41 -12 -120 4 -155
32 -56 43 -65 82 -65 263 l0 165 49 0 50 0 3 -156z"/>
<path d="M300 704 l0 -206 32 6 c73 14 148 110 148 187 0 64 -11 97 -47 139
-34 40 -65 60 -110 74 l-23 7 0 -207z"/>
<path d="M1110 704 l0 -206 32 6 c75 15 148 111 148 193 0 96 -63 178 -157
207 l-23 7 0 -207z"/>
<path d="M1807 899 c-162 -38 -265 -194 -236 -356 26 -145 139 -244 286 -251
95 -5 157 16 223 75 58 52 86 101 100 175 41 216 -159 407 -373 357z"/>
<path d="M2460 704 l0 -206 33 6 c39 8 71 31 111 79 24 30 31 49 34 96 2 32
-1 74 -7 93 -18 56 -81 112 -148 132 l-23 7 0 -207z"/>
<path d="M3360 704 l0 -206 32 6 c104 21 177 167 137 273 -19 52 -84 108 -146
127 l-23 7 0 -207z"/>
<path d="M4546 889 l-26 -20 0 -190 0 -189 70 0 70 0 0 188 c0 184 -1 189 -23
210 -29 28 -57 28 -91 1z"/>
</g>
</svg>
